<?xml version="1.0" encoding="UTF-8"?>
<svg width="42px" height="37px" viewBox="0 0 42 37" version="1.1" xmlns="http://www.w3.org/2000/svg" xmlns:xlink="http://www.w3.org/1999/xlink">
    <!-- Generator: Sketch 62 (91390) - https://sketch.com -->
    <title>toyota-hybrid-leaf-icon</title>
    <desc>Created with Sketch.</desc>
    <defs>
        <polygon id="path-1" points="0 0 42 0 42 37 0 37"></polygon>
    </defs>
    <g id="Hybrid-Page---EN" stroke="none" stroke-width="1" fill="none" fill-rule="evenodd">
        <g id="HYBRID-1600" transform="translate(-1492.000000, -1130.000000)">
            <g id="WHY-A-TOYOTA-HYBRID" transform="translate(0.000000, 1041.000000)">
                <g id="Intro-Copy" transform="translate(596.000000, 82.000000)">
                    <g id="Title" transform="translate(45.000000, 0.000000)">
                        <g id="toyota-hybrid-leaf-icon" transform="translate(851.000000, 7.000000)">
                            <g id="Group-3">
                                <mask id="mask-2" fill="white">
                                    <use xlink:href="#path-1"></use>
                                </mask>
                                <g id="Clip-2"></g>
                                <path d="M27.9750554,31.6601691 C23.6077298,34.2425107 18.5882207,34.4039071 15.1890924,32.0727068 C14.9133901,31.883808 14.6571238,31.6760916 14.4094956,31.4611377 C20.6433904,27.718624 27.8987514,21.6333301 33.2810644,11.9372451 C33.5913195,11.3785098 33.3919212,10.6728531 32.8369174,10.3616404 C32.2819136,10.0504277 31.5800606,10.2494591 31.2698055,10.8081944 C26.0645754,20.1851054 18.8977559,26.0532742 12.8323058,29.6307728 C11.4645922,27.4703776 11.0053284,24.6028783 11.5365771,21.2584274 C12.8877342,12.7435032 18.0224192,7.10621078 26.7981018,4.50288036 C30.9681887,3.26526707 35.0302982,3.02642941 37.5425722,3.02642941 C38.0349491,3.02642941 38.4682984,3.03583817 38.8303826,3.04886568 C39.745311,16.436078 35.7307116,27.0744861 27.9750554,31.6601691 M41.7378538,1.46964216 C41.6716277,0.745167946 41.1043865,0.169062576 40.3838173,0.0959637789 C40.1030761,0.0662900098 12.2434691,-2.48493038 8.5506423,20.7793046 C7.91789478,24.7642746 8.51464984,28.3258507 10.1911788,31.0898537 C4.91900266,33.8039179 0.998703463,34.6905123 0.911601699,34.7093298 C0.290371767,34.8424999 -0.106985037,35.4576878 0.0254672309,36.0822844 C0.140643116,36.6272685 0.618623041,37 1.15059166,37 C1.22977508,37 1.30967835,36.9920387 1.39030147,36.9746687 C1.76822235,36.8943324 6.04052785,35.9360868 11.6503133,33.0070687 C12.1995583,33.5882403 12.807831,34.1194731 13.4852091,34.5841209 C15.5914881,36.0287269 18.1469531,36.7481348 20.8319909,36.7481348 C23.7063491,36.7481348 26.730436,35.9230593 29.5076145,34.2801458 C33.8490255,31.7137266 43.7303967,23.3782925 41.7378538,1.46964216" id="Fill-1" fill="#0079C0" mask="url(#mask-2)"></path>
                            </g>
                        </g>
                    </g>
                </g>
            </g>
        </g>
    </g>
</svg>